<?xml version="1.0" standalone="no"?>
<!DOCTYPE svg PUBLIC "-//W3C//DTD SVG 20010904//EN"
 "http://www.w3.org/TR/2001/REC-SVG-20010904/DTD/svg10.dtd">
<svg version="1.0" xmlns="http://www.w3.org/2000/svg"
 width="512.000000pt" height="512.000000pt" viewBox="0 0 512.000000 512.000000"
 preserveAspectRatio="xMidYMid meet">
<metadata>
Created by potrace 1.11, written by Peter Selinger 2001-2013
</metadata>
<g transform="translate(0.000000,512.000000) scale(0.100000,-0.100000)"
fill="#000000" stroke="none">
<path d="M2587 4374 c-3 -3 -43 -7 -89 -9 -46 -1 -83 -3 -83 -4 0 -1 -22 -4
-49 -7 -47 -4 -65 -7 -123 -20 -16 -4 -35 -7 -43 -8 -8 -1 -24 -7 -35 -13 -11
-6 -30 -9 -42 -8 -12 1 -20 -2 -18 -6 6 -9 -51 -30 -59 -22 -3 4 -6 0 -6 -7 0
-7 -3 -11 -6 -8 -3 4 -17 0 -31 -7 -15 -8 -31 -11 -37 -8 -6 3 -8 3 -4 -1 4
-5 -12 -18 -35 -31 -69 -36 -90 -49 -111 -68 -11 -10 -26 -15 -33 -13 -7 3
-10 -1 -7 -9 4 -10 0 -13 -15 -10 -14 2 -18 -1 -14 -11 5 -13 -8 -19 -32 -14
-5 1 -7 -1 -3 -5 10 -10 -31 -47 -44 -39 -6 4 -8 3 -5 -3 4 -6 -3 -22 -16 -35
-72 -80 -97 -111 -97 -119 0 -5 -5 -9 -11 -9 -5 0 -7 -4 -4 -10 3 -5 1 -10 -5
-10 -6 0 -15 -11 -22 -25 -6 -13 -15 -22 -21 -18 -6 3 -7 1 -3 -5 10 -16 -12
-54 -26 -46 -7 4 -8 3 -4 -4 7 -12 -27 -96 -36 -87 -3 3 -4 -6 -3 -20 2 -14
-1 -25 -6 -25 -5 0 -8 -3 -7 -7 3 -13 -14 -58 -26 -65 -7 -5 -6 -8 4 -8 13 0
13 -1 0 -10 -9 -6 -11 -10 -3 -10 7 0 10 -7 7 -15 -4 -8 -11 -12 -18 -8 -6 4
-5 -1 3 -10 12 -15 11 -17 -5 -18 -11 0 -14 -3 -6 -6 14 -6 16 -43 2 -43 -5 0
-10 -5 -10 -11 0 -5 6 -7 13 -3 9 6 9 4 1 -7 -6 -8 -10 -24 -8 -37 3 -16 0
-21 -8 -16 -7 4 -8 3 -4 -4 12 -20 15 -52 5 -52 -6 0 -7 -5 -4 -10 11 -18 14
-101 3 -94 -5 3 -2 -8 7 -26 11 -21 12 -29 4 -24 -9 5 -10 2 -6 -9 4 -10 10
-25 13 -34 5 -15 4 -16 -5 -3 -17 24 -13 2 5 -25 15 -23 15 -25 0 -25 -9 0
-16 -5 -16 -11 0 -6 7 -8 16 -5 10 4 14 1 11 -6 -2 -7 0 -24 5 -38 16 -41 18
-60 6 -60 -7 0 -4 -6 6 -13 9 -7 18 -22 19 -35 0 -12 5 -22 10 -22 4 0 5 -5 2
-10 -5 -8 -11 -8 -19 -1 -9 8 -13 7 -13 -3 0 -8 8 -13 19 -11 17 4 22 -6 21
-42 0 -6 7 -9 16 -6 14 4 14 3 -1 -9 -15 -13 -15 -16 8 -32 18 -14 23 -26 19
-45 -4 -25 -4 -25 11 -6 15 20 15 19 12 -5 -2 -14 -9 -24 -16 -22 -8 1 -10 -2
-7 -8 4 -6 10 -9 13 -6 3 3 12 0 21 -7 14 -11 14 -10 2 6 -7 9 -9 17 -3 17 12
0 26 -30 23 -49 -1 -7 2 -10 8 -6 7 3 11 -3 11 -15 0 -13 4 -19 11 -14 7 4 10
1 7 -7 -3 -8 -11 -13 -17 -11 -7 1 -9 -3 -6 -9 5 -8 10 -8 18 0 16 16 27 14
27 -5 0 -8 -4 -13 -9 -9 -15 9 -25 -15 -12 -28 9 -9 11 -8 6 3 -4 11 1 16 15
17 12 1 20 -4 20 -13 0 -8 -4 -12 -10 -9 -6 3 -7 -1 -4 -10 6 -14 8 -14 21 2
14 17 14 17 10 -4 -3 -14 -1 -20 7 -17 7 3 27 -11 45 -31 28 -31 31 -38 19
-52 -11 -14 -11 -15 1 -8 11 6 13 4 8 -8 -4 -10 -2 -14 7 -11 7 2 23 -4 36
-16 13 -11 26 -20 29 -20 3 1 -12 16 -34 35 -22 19 -34 35 -27 35 6 0 12 -4
12 -10 0 -5 5 -10 11 -10 13 0 49 -38 49 -52 0 -5 4 -7 8 -4 4 2 14 0 22 -6
12 -8 12 -9 -2 -4 -10 3 -20 1 -23 -3 -3 -5 8 -8 24 -7 16 1 29 0 28 -3 -1 -4
1 -6 5 -6 3 0 17 -10 30 -23 14 -12 28 -19 33 -15 4 5 5 2 1 -4 -4 -8 -1 -13
8 -13 9 0 16 -4 16 -10 0 -5 6 -10 13 -10 12 0 25 -8 73 -49 7 -5 14 -7 17 -5
7 7 32 -38 29 -49 -1 -5 2 -6 7 -3 5 4 17 -4 25 -16 9 -12 16 -17 16 -10 0 7
4 10 10 7 6 -3 7 1 4 9 -3 9 -2 16 3 16 16 0 12 -38 -5 -43 -9 -3 -39 -20 -67
-36 -66 -40 -95 -52 -106 -45 -5 3 -8 1 -7 -5 4 -12 -74 -54 -81 -43 -4 4 -23
15 -43 24 -21 10 -38 23 -38 28 0 6 -4 8 -10 5 -14 -9 -52 14 -44 27 4 7 3 8
-4 4 -16 -10 -94 32 -86 46 4 7 3 8 -4 4 -13 -8 -112 41 -112 56 0 5 -4 7 -9
3 -5 -3 -16 1 -24 9 -8 8 -17 13 -19 10 -3 -2 -11 2 -18 11 -7 8 -17 15 -22
15 -18 0 -78 32 -73 39 2 4 -2 8 -10 8 -19 0 -105 46 -105 56 0 5 -4 5 -10 2
-5 -3 -10 2 -11 12 0 11 -3 13 -6 5 -3 -9 -9 -10 -17 -3 -12 10 -144 84 -186
104 -14 6 -28 16 -32 22 -5 6 -8 6 -8 0 0 -7 -3 -7 -8 0 -4 6 -34 24 -67 40
-33 17 -62 32 -65 35 -3 3 -22 13 -42 22 l-38 17 4 -29 c2 -17 0 -33 -5 -36
-4 -2 -4 -15 1 -28 6 -17 4 -28 -8 -40 -16 -16 -16 -17 0 -11 15 6 16 3 8 -24
-5 -20 -5 -31 1 -31 6 0 7 -5 4 -10 -4 -6 -12 -7 -18 -3 -9 5 -9 3 0 -8 7 -9
11 -25 8 -37 -2 -12 1 -22 6 -22 6 0 7 -5 4 -10 -4 -6 -12 -7 -18 -3 -7 4 -5
-2 3 -12 14 -17 13 -18 -5 -12 -16 6 -15 3 5 -13 15 -12 20 -20 11 -20 -8 0
-11 -3 -8 -7 4 -3 2 -12 -5 -20 -8 -10 -8 -12 4 -8 9 4 15 0 15 -9 0 -8 -3
-13 -7 -11 -3 2 -6 -5 -6 -15 0 -11 5 -16 15 -12 9 3 12 1 7 -6 -5 -8 0 -12
13 -12 11 0 23 -5 26 -10 4 -6 10 -8 15 -5 5 3 12 0 16 -6 4 -7 3 -10 -2 -7
-5 3 -15 -1 -23 -9 -12 -13 -11 -14 10 -8 13 4 27 8 31 9 13 2 68 -39 68 -51
0 -7 4 -13 10 -13 5 0 6 8 3 18 -6 16 -6 16 10 0 9 -9 30 -22 47 -30 29 -12
42 -38 19 -38 -5 0 -8 3 -6 8 3 4 -5 7 -18 7 -12 0 -21 -5 -18 -10 2 -6 16
-10 31 -10 15 1 35 -3 44 -7 13 -6 16 -5 12 7 -3 8 -11 12 -17 8 -6 -4 -7 -1
-2 7 6 10 12 7 25 -10 13 -18 19 -20 24 -9 3 8 3 3 0 -11 -5 -20 -4 -22 6 -13
14 13 40 7 40 -9 0 -6 -6 -5 -15 2 -10 9 -15 9 -15 1 0 -12 9 -14 53 -13 20 0
27 -4 27 -19 0 -10 5 -19 11 -19 5 0 7 5 4 10 -3 6 -1 10 5 10 6 0 10 -7 8
-16 -2 -10 7 -20 22 -25 24 -9 24 -8 6 6 -11 8 -17 17 -14 20 10 10 47 -45 41
-61 -3 -8 -1 -14 5 -14 5 0 9 8 8 17 0 10 4 19 9 20 6 1 8 -6 7 -15 -3 -13 -1
-14 11 -4 12 10 16 9 21 -4 9 -23 7 -31 -4 -14 -5 8 -10 10 -10 4 0 -18 11
-23 34 -14 16 6 29 3 47 -12 13 -11 17 -16 9 -12 -12 6 -13 5 -2 -7 11 -12 14
-12 23 1 9 12 10 12 5 -4 -4 -13 -2 -17 7 -13 8 3 20 1 28 -5 11 -8 10 -9 -3
-4 -12 3 -18 0 -18 -9 0 -8 -6 -15 -14 -15 -8 0 -22 -7 -31 -16 -8 -9 -22 -13
-31 -10 -8 3 -12 2 -9 -3 3 -5 -4 -12 -15 -16 -11 -3 -20 -10 -20 -14 0 -4 -6
-8 -12 -8 -7 0 -41 -17 -75 -37 -35 -22 -67 -35 -74 -30 -8 4 -9 3 -5 -4 4 -7
1 -12 -9 -12 -9 0 -13 -5 -9 -11 4 -7 1 -10 -7 -7 -8 3 -20 -2 -28 -9 -7 -8
-20 -12 -28 -9 -8 3 -12 2 -9 -3 3 -4 -12 -16 -34 -26 -22 -10 -40 -22 -40
-27 0 -5 -4 -7 -9 -4 -4 3 -23 -6 -42 -20 -18 -13 -39 -22 -46 -20 -6 3 -13 0
-15 -6 -2 -6 -31 -25 -63 -43 l-60 -32 -1 -50 c0 -27 -4 -55 -8 -61 -3 -6 -2
-13 3 -17 7 -3 7 -15 1 -30 -6 -16 -5 -25 3 -29 7 -2 3 -5 -8 -5 -17 -1 -18
-3 -5 -11 12 -8 13 -12 2 -19 -11 -6 -10 -10 4 -15 16 -6 16 -8 4 -16 -8 -6
-11 -10 -6 -10 5 0 3 -7 -4 -15 -11 -13 -10 -14 6 -8 17 6 17 5 5 -10 -8 -11
-9 -17 -3 -17 6 0 9 -7 5 -16 -5 -13 -7 -13 -14 -2 -5 8 -9 9 -9 2 0 -6 6 -16
13 -23 15 -11 16 -58 3 -80 -7 -10 -4 -11 14 -1 12 6 29 9 37 6 14 -6 14 -4 2
11 -9 11 -10 14 -1 9 7 -4 25 2 41 13 16 12 33 21 38 21 6 0 18 9 28 20 10 11
21 17 26 15 4 -3 10 -1 14 5 4 6 11 8 16 5 5 -4 9 -1 9 5 0 7 7 7 22 -1 22
-12 22 -11 8 6 -8 10 -10 16 -3 12 6 -4 13 -3 15 2 5 13 108 72 108 62 0 -5
-6 -12 -12 -15 -7 -3 -2 -3 12 0 20 5 23 4 12 -7 -6 -7 -12 -17 -12 -23 0 -5
6 -1 14 10 9 12 11 23 5 29 -15 15 -10 23 11 18 11 -3 20 0 20 6 0 6 7 11 15
11 8 0 15 -4 15 -10 0 -5 4 -10 10 -10 5 0 9 6 7 13 -1 6 4 11 11 9 8 -1 11 2
8 7 -3 5 1 12 10 15 9 4 14 13 10 22 -3 9 -2 12 4 9 6 -4 17 1 26 9 9 9 20 14
25 11 5 -4 9 -2 9 4 0 13 101 62 112 55 4 -3 8 3 8 13 1 17 2 16 17 -2 15 -20
15 -20 11 0 -4 15 4 25 29 38 24 12 34 14 31 5 -3 -7 -10 -13 -16 -13 -6 0
-17 -7 -24 -15 -11 -12 -11 -12 3 -2 12 9 19 9 29 -1 10 -9 11 -9 6 1 -4 6 -3
12 3 12 5 0 11 10 13 23 2 12 8 22 13 22 6 0 16 4 24 9 9 6 18 3 27 -8 11 -16
13 -16 19 3 3 12 11 21 16 21 6 0 8 -4 5 -8 -6 -10 31 -9 39 1 3 4 2 5 -1 2
-4 -2 -16 1 -27 7 -16 8 -23 7 -33 -6 -9 -13 -13 -14 -16 -4 -4 11 48 43 61
38 2 -1 7 3 10 8 3 6 13 12 21 14 8 2 20 9 26 17 9 12 12 11 17 -3 4 -10 3
-15 -3 -11 -6 3 -7 -1 -4 -9 10 -25 25 -7 20 22 -5 26 -4 26 9 8 14 -19 15
-19 15 5 0 16 6 26 15 26 11 0 12 -4 4 -13 -7 -8 -6 -14 2 -20 8 -4 9 -3 5 5
-4 6 -1 14 8 17 8 3 12 12 9 20 -4 12 7 17 33 13 4 0 11 5 15 13 7 10 9 10 9
0 0 -7 4 -11 10 -7 5 3 18 -2 28 -12 10 -10 25 -19 33 -21 7 -2 17 -8 20 -14
3 -5 9 -9 13 -9 19 3 26 0 26 -10 0 -8 -5 -8 -15 1 -8 7 -15 9 -15 5 0 -5 -9
0 -20 10 -23 21 -27 11 -5 -11 8 -9 19 -13 24 -9 5 3 13 1 16 -5 5 -8 11 -8
20 0 9 7 16 6 25 -5 7 -8 19 -15 26 -15 8 0 14 -5 14 -11 0 -6 7 -9 15 -5 8 3
14 2 12 -2 -1 -4 3 -9 8 -10 40 -14 55 -37 24 -37 -5 0 -9 -4 -10 -10 0 -5 -9
-15 -20 -21 -27 -14 -149 -133 -149 -145 0 -6 -5 -7 -12 -3 -7 5 -9 2 -6 -7 6
-16 -16 -42 -26 -31 -4 3 -4 -1 -1 -10 4 -9 2 -19 -4 -23 -6 -3 -11 -14 -11
-25 0 -10 -7 -21 -16 -24 -8 -3 -13 -10 -9 -16 3 -5 -2 -21 -11 -35 -9 -14
-13 -25 -10 -25 4 0 2 -8 -3 -18 -6 -11 -11 -38 -12 -60 -2 -23 -6 -42 -10
-42 -4 0 -6 -16 -4 -35 1 -20 -3 -35 -9 -35 -6 0 -5 -4 3 -9 8 -5 22 -8 32 -6
10 2 21 0 24 -6 4 -5 11 -9 16 -9 6 0 7 6 3 13 -5 8 -2 8 9 -2 14 -11 17 -11
17 0 0 12 2 12 9 0 7 -11 9 -11 13 0 3 8 9 10 14 6 10 -9 -16 -28 -28 -21 -4
3 -8 1 -8 -5 0 -5 9 -9 20 -8 11 1 20 4 20 8 0 4 11 6 25 4 14 -1 28 1 30 5 3
5 -6 7 -20 5 -14 -1 -23 0 -19 4 10 10 74 7 74 -4 0 -5 5 -3 10 5 9 13 10 13
10 0 0 -13 1 -13 11 0 8 12 9 10 4 -7 -5 -18 -2 -22 15 -20 11 1 20 5 20 10 0
4 5 5 10 2 6 -4 9 -3 8 2 -2 4 1 8 7 8 5 0 9 -7 7 -15 -1 -9 3 -7 10 5 7 11
20 21 28 23 11 3 9 -3 -5 -20 l-20 -23 21 18 c11 9 24 14 29 10 4 -5 3 2 -3
13 -6 12 -9 24 -6 27 5 5 11 29 13 50 1 5 7 5 14 1 9 -5 9 -4 0 6 -13 14 -7
40 9 40 6 0 4 -8 -3 -17 -12 -16 -12 -17 2 -6 9 7 20 9 25 5 4 -4 3 0 -4 10
-8 10 -9 19 -3 22 5 3 7 14 5 24 -7 23 80 119 91 101 6 -8 4 -10 -5 -4 -9 6
-11 4 -5 -5 5 -8 4 -11 -2 -7 -5 3 -10 0 -10 -8 0 -13 3 -13 17 0 9 8 20 13
23 10 4 -3 3 1 -3 7 -16 19 -12 26 19 43 36 18 51 3 26 -25 -11 -12 -13 -20
-5 -25 6 -3 9 -3 8 2 -2 4 5 18 14 31 9 13 17 19 19 13 2 -6 9 -3 16 7 9 15 8
19 -3 19 -7 0 -11 -3 -9 -7 2 -4 -2 -7 -10 -7 -17 0 -21 16 -5 18 13 2 29 6
33 8 1 2 12 4 24 7 15 2 24 -2 28 -17 5 -15 10 -17 20 -9 10 8 14 7 18 -2 4
-9 6 -9 6 2 1 13 2 13 12 0 9 -13 10 -13 6 0 -2 9 -14 14 -30 13 -15 -1 -27 1
-27 5 0 4 16 8 35 9 28 1 35 -2 35 -17 0 -18 25 -34 40 -25 14 9 57 -16 68
-39 10 -21 10 -21 9 0 -1 20 -77 73 -77 53 0 -5 -5 -9 -11 -9 -5 0 -7 5 -3 12
5 7 2 8 -7 3 -11 -6 -12 -5 -1 6 10 11 16 11 33 1 11 -7 24 -10 29 -7 6 4 10
1 10 -4 0 -6 7 -11 15 -11 8 0 15 -4 15 -10 0 -5 7 -10 15 -10 8 0 15 -4 15
-10 0 -5 3 -9 8 -8 4 2 17 -6 29 -17 17 -14 20 -22 11 -32 -8 -10 -7 -12 5 -7
10 3 20 -2 26 -15 15 -27 14 -31 -6 -24 -19 7 -18 5 11 -17 13 -10 17 -10 12
-2 -4 6 -2 12 3 12 6 0 11 -10 11 -21 0 -12 8 -28 18 -35 16 -13 16 -14 0 -8
-10 3 -18 1 -18 -5 0 -6 6 -11 13 -11 8 0 13 -12 13 -32 -1 -33 13 -60 27 -51
4 2 7 0 7 -4 0 -5 10 -14 23 -22 21 -13 21 -13 5 5 -16 18 -15 19 48 20 35 0
64 -4 64 -8 0 -5 -4 -7 -9 -3 -5 3 -12 1 -15 -4 -3 -5 -19 -7 -36 -6 -16 1
-30 -1 -30 -5 0 -3 16 -7 35 -7 19 0 35 4 35 9 0 5 4 7 9 3 5 -3 15 0 23 7 15
15 148 19 148 6 0 -5 6 -6 13 -1 12 8 17 9 38 12 6 0 9 17 8 39 -2 21 1 44 6
51 5 10 4 12 -3 7 -8 -5 -13 1 -14 16 -2 37 -3 42 -11 56 -5 6 -5 17 -2 22 3
6 1 10 -6 10 -7 0 -10 11 -7 29 2 17 1 28 -3 25 -10 -6 -30 31 -22 40 3 3 1 6
-5 6 -7 0 -12 6 -12 13 0 7 -8 22 -18 33 -11 11 -18 27 -16 37 1 9 -1 15 -5
14 -8 -3 -81 72 -81 83 0 4 -7 11 -16 14 -8 3 -12 11 -8 17 4 7 3 9 -4 5 -5
-3 -24 6 -42 20 -29 25 -30 28 -15 44 16 17 15 18 -2 16 -10 -2 -18 -8 -18
-14 0 -6 -3 -14 -7 -18 -5 -4 -8 0 -8 10 0 10 -5 14 -12 10 -7 -5 -8 -3 -4 5
5 7 10 10 13 7 3 -3 18 4 34 14 20 15 30 17 35 9 4 -8 3 -9 -4 -5 -8 4 -10 2
-6 -8 5 -12 9 -11 25 5 22 22 26 37 4 19 -8 -7 -15 -9 -15 -6 0 4 7 14 15 22
8 9 15 11 15 6 0 -6 7 -13 16 -16 14 -5 15 -4 5 8 -8 10 -9 16 -1 21 5 3 10 3
10 0 0 -4 14 4 32 16 17 13 28 18 24 11 -4 -7 -2 -12 4 -12 6 0 9 -4 6 -8 -3
-5 2 -9 10 -9 10 0 11 4 4 11 -15 15 -12 45 5 42 8 -1 18 -6 22 -10 4 -4 3 -6
-3 -4 -15 4 -19 -15 -5 -20 6 -2 11 1 11 8 0 6 5 8 12 4 6 -4 8 -3 4 4 -3 6
-2 13 4 17 6 3 13 -1 16 -9 6 -15 40 -16 63 -1 6 3 19 0 30 -7 16 -10 18 -16
9 -32 -10 -20 -9 -20 7 -5 16 16 20 16 51 -3 19 -11 34 -25 34 -31 0 -7 5 -6
11 3 8 11 9 6 5 -20 -5 -29 -4 -31 4 -12 5 12 12 22 16 22 14 0 84 -44 84 -53
0 -5 -7 -4 -15 3 -22 18 -18 3 4 -19 16 -16 20 -17 25 -5 4 10 2 12 -6 8 -7
-4 -8 -3 -4 5 4 6 12 9 17 5 5 -3 6 -10 3 -16 -4 -7 -2 -8 4 -4 7 4 18 4 25
-1 6 -4 18 -8 25 -9 23 -4 24 -11 5 -30 -17 -17 -17 -18 2 -10 28 12 57 9 66
-6 5 -7 9 -8 9 -3 0 6 7 1 15 -9 8 -11 15 -17 15 -13 0 4 23 -5 50 -20 28 -15
50 -31 50 -36 0 -4 4 -6 9 -2 5 3 15 0 23 -7 7 -7 20 -14 28 -16 8 -2 22 -10
31 -18 9 -8 18 -12 20 -10 2 3 15 -4 29 -14 20 -15 22 -20 11 -34 -9 -11 -10
-16 -2 -17 6 -1 17 -2 24 -3 18 -3 28 4 21 15 -4 6 -11 6 -20 -2 -9 -7 -14 -8
-14 -1 0 20 18 22 49 5 30 -18 46 -48 30 -57 -5 -2 -4 -3 3 -2 7 2 22 -4 32
-13 11 -9 16 -11 13 -4 -4 6 -4 13 0 16 5 2 2 2 -5 0 -7 -1 -10 2 -7 7 4 6 1
9 -6 8 -6 -2 -14 4 -16 12 -4 13 -3 13 6 0 6 -8 11 -12 11 -7 0 11 60 -22 60
-33 0 -6 3 -9 8 -9 19 3 32 -2 32 -12 0 -8 -5 -8 -15 1 -8 7 -15 8 -15 4 0 -9
32 -33 47 -36 5 0 13 -8 19 -16 7 -10 13 -12 18 -4 8 13 -28 35 -39 24 -5 -4
-5 -1 0 7 6 10 4 12 -5 6 -9 -5 -11 -4 -6 4 5 8 15 7 37 -6 16 -10 29 -21 29
-25 0 -4 3 -7 8 -7 23 4 34 -3 28 -17 -5 -13 -3 -14 6 -7 7 6 21 9 30 8 14 -3
15 0 5 16 -10 16 -9 21 3 29 8 5 11 10 5 10 -5 0 -10 23 -11 50 -1 45 1 49 15
38 14 -11 14 -11 4 3 -7 9 -9 20 -5 24 4 5 1 5 -5 1 -15 -9 -18 10 -3 19 6 4
7 12 3 18 -10 16 -10 118 0 124 4 3 4 10 -2 16 -5 7 -8 24 -6 39 2 20 -4 33
-21 47 -13 10 -22 20 -20 22 3 2 -7 5 -20 5 -14 1 -31 10 -38 20 -7 9 -18 14
-24 10 -7 -4 -12 -3 -12 3 0 5 -9 13 -20 16 -11 4 -18 10 -16 14 3 4 -5 8 -16
8 -12 1 -25 8 -29 15 -5 7 -9 9 -9 3 0 -7 -3 -7 -8 0 -4 6 -33 23 -64 40 -32
16 -58 34 -58 39 0 5 -3 7 -6 3 -10 -9 -86 32 -79 43 3 6 -1 7 -9 4 -10 -4
-16 -1 -16 7 0 7 -3 9 -7 6 -3 -4 -12 -2 -20 4 -7 6 -13 8 -13 4 0 -5 -9 2
-19 14 -11 12 -22 22 -26 21 -12 -4 -65 23 -65 32 0 6 -7 7 -16 4 -12 -5 -15
-2 -10 10 4 10 2 14 -6 11 -7 -2 -25 4 -39 14 -14 10 -29 16 -33 12 -3 -3 -6
-3 -6 0 0 4 17 15 38 26 29 15 42 17 57 9 16 -9 18 -8 8 2 -10 11 -7 17 15 30
29 18 69 9 56 -12 -5 -7 -2 -8 5 -4 9 6 8 13 -6 28 -18 21 -18 21 7 8 20 -10
23 -10 13 0 -16 18 23 49 54 44 13 -3 22 -1 21 3 -2 5 1 9 6 10 5 1 12 5 15
10 11 15 61 44 61 34 0 -5 7 -11 15 -15 13 -5 14 -2 4 15 -8 15 -8 19 0 15 6
-4 11 -3 11 3 0 6 7 8 15 5 8 -4 15 -1 15 6 0 6 5 8 11 4 8 -4 8 -9 0 -17 -6
-6 -11 -15 -11 -20 0 -4 11 3 23 17 13 14 28 22 32 18 5 -4 5 -1 1 6 -6 10
-11 10 -21 2 -10 -9 -13 -7 -11 7 2 10 10 17 18 15 9 -1 18 5 22 13 3 9 10 13
16 10 6 -4 8 -10 5 -15 -3 -5 0 -12 6 -16 8 -5 9 -3 4 6 -6 10 -1 12 18 8 15
-3 24 -1 21 3 -3 5 -12 9 -20 9 -8 0 -14 5 -14 10 0 12 6 13 29 1 13 -7 18 -6
18 4 0 8 -4 12 -8 9 -4 -2 -11 0 -14 6 -4 6 -3 9 2 8 4 -1 18 3 31 10 12 7 22
9 22 5 0 -4 7 1 15 11 8 11 15 16 15 12 0 -5 7 -3 16 5 13 10 17 10 26 -2 7
-11 9 -9 5 7 -5 22 6 26 32 10 10 -6 12 -5 7 3 -10 15 13 43 27 34 6 -4 7 -1
1 8 -5 8 -9 58 -9 111 -1 85 1 95 15 85 13 -10 13 -10 3 4 -7 9 -9 20 -5 24 4
5 1 5 -5 1 -7 -4 -13 -3 -13 1 0 5 6 15 13 22 10 11 10 13 0 7 -19 -11 -16 5
5 21 15 13 15 13 -8 7 -20 -6 -23 -4 -14 7 6 8 10 22 8 32 -2 14 2 17 14 13
15 -5 15 -4 0 8 -20 15 -25 41 -5 30 9 -6 9 -5 0 8 -7 8 -10 18 -6 21 17 18
-33 4 -82 -23 -31 -17 -61 -27 -67 -24 -7 4 -8 2 -4 -5 10 -16 -21 -26 -38
-12 -10 9 -16 9 -21 1 -4 -6 -1 -9 6 -8 6 2 14 -3 16 -10 3 -7 1 -12 -4 -10
-14 4 -53 -13 -53 -23 0 -6 -4 -8 -8 -5 -5 3 -18 -3 -28 -13 -11 -10 -27 -17
-37 -15 -9 1 -15 -1 -12 -5 6 -11 -44 -33 -57 -25 -7 4 -8 2 -4 -4 4 -7 1 -12
-8 -12 -8 0 -20 -8 -25 -17 -6 -10 -11 -14 -11 -9 0 4 -10 1 -23 -7 -13 -8
-59 -34 -103 -57 -43 -23 -84 -46 -90 -51 -6 -5 -14 -6 -17 -2 -4 3 -7 1 -7
-6 0 -8 -6 -11 -16 -7 -9 3 -12 2 -9 -5 4 -6 -2 -13 -14 -16 -12 -3 -21 -9
-21 -14 0 -4 -9 -6 -20 -4 -11 2 -18 0 -15 -5 3 -4 -7 -13 -23 -19 -15 -6 -43
-20 -62 -31 -49 -29 -114 -63 -118 -61 -1 1 -12 -8 -24 -19 -12 -11 -36 -24
-55 -31 -18 -6 -33 -15 -33 -19 0 -5 -7 -6 -17 -3 -10 4 -14 2 -10 -4 9 -14
-11 -11 -43 7 -14 8 -29 14 -33 15 -4 0 -11 6 -16 13 -5 8 -12 14 -17 15 -5 1
-8 5 -7 8 1 4 -5 5 -15 2 -9 -2 -27 5 -40 17 -12 11 -22 17 -22 13 0 -4 -7 2
-16 13 -8 10 -12 12 -8 4 6 -11 2 -10 -13 2 -11 10 -25 18 -31 18 -7 0 -12 5
-12 11 0 5 -5 7 -12 3 -7 -4 -8 -3 -4 5 4 6 12 9 17 6 5 -4 9 -2 9 3 0 5 9 12
21 15 12 3 18 10 15 16 -4 6 4 7 24 1 28 -8 29 -7 20 11 -6 11 -7 18 -3 17 7
-3 39 15 102 56 9 5 11 5 7 -2 -3 -5 0 -12 7 -15 9 -3 13 3 13 15 -1 14 14 30
48 51 43 27 51 29 70 17 21 -13 21 -13 2 9 -19 21 -19 21 2 21 11 0 24 5 28
12 5 8 1 9 -12 5 -14 -6 -13 -2 5 12 14 10 32 16 40 13 14 -5 14 -4 1 13 -14
17 -14 18 9 6 21 -12 26 -10 45 10 20 22 20 23 0 6 -11 -9 -23 -17 -26 -17
-10 0 -4 25 6 27 5 1 16 13 26 27 9 15 20 23 23 19 4 -3 7 1 7 9 0 9 14 28 31
42 17 14 28 26 24 26 -3 0 -1 9 5 21 9 15 15 18 25 9 8 -7 15 -7 19 -1 4 5 2
12 -4 16 -12 7 -4 25 11 25 6 0 8 -4 5 -8 -3 -5 1 -9 8 -9 7 0 13 6 13 13 0 7
-4 11 -8 8 -4 -2 -10 0 -14 6 -6 9 8 15 29 11 5 -1 4 4 -2 12 -10 11 -9 17 3
27 13 11 15 10 9 -6 -5 -18 -5 -18 6 -1 6 9 15 15 21 12 5 -4 9 -1 9 5 0 7 -7
10 -15 7 -8 -4 -17 -2 -20 3 -4 6 -2 10 4 10 5 0 15 16 21 35 13 38 19 42 40
23 12 -11 12 -10 2 3 -6 9 -8 20 -4 24 4 5 0 4 -8 0 -12 -7 -13 -6 -3 6 6 8
11 18 11 22 0 5 4 12 8 15 4 4 4 1 -1 -7 -6 -10 -4 -12 4 -7 9 6 9 11 0 22 -9
11 -9 14 0 14 7 0 10 4 7 8 -2 4 0 14 6 22 8 12 8 11 3 -5 -5 -16 -4 -17 6 -8
10 10 9 15 -1 28 -11 14 -7 19 13 16 12 -2 8 17 -5 22 -10 4 -10 6 -1 6 7 1
10 7 7 15 -3 8 -1 17 5 21 6 3 11 22 11 42 0 29 3 34 18 29 14 -5 14 -4 -2 9
-17 13 -17 15 -4 15 9 0 20 4 23 10 4 6 -1 7 -11 3 -11 -4 -15 -3 -11 4 4 6 1
14 -5 16 -9 4 -10 6 -1 6 7 1 10 11 7 26 -3 15 0 25 8 25 9 0 9 3 1 11 -12 12
-5 52 8 43 5 -3 9 0 9 5 0 6 -7 11 -15 11 -9 0 -12 6 -9 15 4 8 11 12 18 8 8
-5 8 -3 0 8 -6 8 -12 32 -12 54 -3 66 -8 111 -16 123 -4 7 -2 12 5 12 9 0 8 4
-1 15 -6 8 -12 30 -13 49 0 19 -4 33 -8 30 -9 -5 -6 17 5 35 7 11 5 13 -6 8
-12 -4 -17 3 -22 25 -3 16 -3 35 1 41 3 6 1 7 -5 3 -11 -6 -16 6 -13 27 0 4
-5 7 -12 7 -8 0 -7 4 3 10 9 6 10 10 3 10 -7 0 -21 20 -32 45 -11 25 -29 58
-41 72 -11 14 -17 30 -13 36 3 5 2 7 -3 4 -6 -3 -22 14 -38 39 -15 24 -32 44
-38 44 -5 0 -6 5 -3 10 3 6 -1 10 -9 10 -8 0 -18 9 -21 20 -3 11 -11 20 -16
20 -6 0 -7 4 -4 10 3 6 -1 7 -9 4 -11 -4 -16 0 -16 12 0 9 -2 15 -6 12 -3 -3
-21 10 -41 28 -20 19 -40 34 -45 34 -5 0 -6 6 -2 13 4 6 4 9 -1 5 -8 -8 -72
34 -87 56 -4 6 -8 8 -8 3 0 -8 -100 44 -100 53 0 3 -8 6 -17 7 -10 1 -51 15
-92 32 -41 17 -82 31 -93 31 -11 0 -17 4 -14 8 2 4 -5 9 -17 9 -50 4 -77 8
-77 14 0 5 -15 7 -102 11 -32 2 -58 7 -58 11 0 5 -4 5 -10 2 -5 -3 -10 -2 -10
4 0 6 -11 6 -29 1 -17 -4 -33 -4 -38 1 -5 5 -12 7 -16 3z m12 -351 c-14 -16 3
-17 19 -1 7 7 12 8 12 2 0 -6 -5 -15 -11 -21 -9 -9 -7 -11 7 -9 11 2 23 -2 27
-8 6 -7 7 -5 4 5 -3 9 -1 22 4 30 6 10 9 8 9 -10 0 -22 1 -23 13 -8 8 12 21
16 37 13 14 -2 28 -5 33 -5 4 -1 7 -6 7 -12 0 -8 -4 -8 -13 0 -10 8 -14 7 -14
-3 0 -8 7 -12 16 -11 9 2 20 4 24 4 5 1 5 6 1 12 -3 6 5 4 18 -5 14 -9 28 -13
31 -9 4 3 7 1 7 -5 0 -6 -4 -14 -10 -17 -5 -3 -10 -12 -9 -18 0 -9 2 -8 6 1 2
6 10 9 15 6 7 -4 8 -2 4 4 -4 7 -2 12 4 12 6 0 8 6 4 13 -4 6 2 4 13 -6 11 -9
23 -14 26 -10 4 3 7 1 7 -5 0 -15 -13 -15 -28 0 -8 8 -12 8 -12 1 0 -15 30
-25 44 -15 13 11 76 -13 76 -29 0 -5 4 -8 9 -5 4 3 19 -3 31 -14 13 -11 27
-20 32 -20 4 0 8 -7 8 -15 0 -8 -5 -15 -12 -15 -6 0 -8 -3 -4 -7 4 -5 15 1 23
12 15 19 15 18 10 -15 -3 -19 -3 -29 0 -22 2 6 10 9 15 6 6 -4 8 -2 4 4 -3 6
-1 14 6 18 7 4 10 4 7 0 -9 -9 43 -62 56 -58 5 2 7 0 3 -4 -4 -4 0 -13 10 -20
9 -7 18 -17 18 -23 1 -6 2 -16 3 -23 0 -6 4 -8 8 -5 8 9 37 -32 38 -55 1 -10
12 -29 25 -43 13 -14 18 -25 12 -25 -7 0 -12 -4 -12 -10 0 -5 8 -6 18 -3 14 6
15 4 4 -9 -10 -13 -10 -18 -1 -24 8 -5 10 -3 5 7 -4 8 0 5 8 -5 13 -16 13 -22
3 -35 -8 -9 -8 -12 -1 -8 16 10 25 -18 11 -32 -9 -9 -8 -11 7 -5 14 5 17 3 14
-7 -3 -8 -12 -13 -19 -11 -9 1 -7 -3 4 -12 23 -18 30 -53 11 -60 -8 -3 -14
-11 -14 -18 0 -9 3 -9 10 2 5 8 12 12 15 8 9 -9 14 -158 4 -163 -4 -3 -6 -17
-3 -31 3 -19 1 -24 -8 -18 -10 6 -10 5 -2 -7 6 -8 9 -23 7 -34 -3 -11 -5 -28
-6 -37 -1 -9 -6 -14 -11 -11 -5 4 -7 -1 -3 -11 4 -10 4 -23 0 -29 -4 -7 -9
-20 -10 -30 -2 -10 -10 -31 -18 -48 -9 -16 -12 -29 -8 -29 5 0 0 -5 -9 -11
-10 -5 -18 -17 -18 -25 0 -18 -29 -66 -47 -77 -7 -4 -13 -15 -13 -22 0 -8 -5
-15 -10 -15 -6 0 -15 -11 -22 -25 -6 -13 -14 -22 -18 -20 -5 3 -11 -2 -14 -11
-3 -8 -11 -12 -16 -9 -6 4 -9 3 -8 -2 2 -4 -5 -19 -15 -33 -9 -13 -17 -20 -17
-15 0 5 -13 -3 -28 -18 -16 -15 -32 -24 -37 -20 -4 5 -5 3 -2 -3 4 -7 -12 -24
-36 -40 -23 -16 -45 -33 -49 -39 -5 -6 -8 -6 -8 0 0 5 -7 -1 -16 -13 -9 -13
-21 -21 -27 -19 -7 2 -23 -8 -36 -22 -14 -14 -26 -25 -28 -24 -7 4 -43 -10
-43 -17 0 -8 -41 -25 -49 -21 -2 2 -7 -2 -10 -7 -3 -5 -29 -24 -58 -41 -56
-34 -103 -48 -103 -31 0 6 -4 9 -10 5 -5 -3 -18 3 -30 15 -11 11 -20 18 -20
15 0 -3 -9 -1 -20 5 -11 6 -17 16 -14 22 4 7 2 8 -5 4 -6 -4 -18 -2 -26 4 -8
7 -15 9 -15 6 0 -6 -12 2 -46 33 -8 7 -18 11 -21 7 -3 -3 -13 2 -22 12 -9 10
-35 29 -58 42 -24 13 -43 27 -43 32 0 4 -6 8 -13 8 -7 0 -23 9 -35 20 -12 11
-26 20 -32 20 -6 0 -9 4 -6 8 3 4 -13 19 -35 32 -23 15 -37 30 -34 38 3 7 1
10 -5 7 -12 -7 -86 67 -125 125 -16 25 -36 49 -43 53 -11 7 -11 12 0 25 7 9 9
14 4 10 -5 -4 -14 -2 -20 5 -19 18 -46 106 -39 124 4 11 3 14 -5 9 -7 -4 -12
-1 -13 6 0 7 -3 22 -5 33 -3 11 -7 35 -9 53 -2 18 -7 42 -10 52 -4 12 1 23 12
30 17 11 17 11 -1 6 -13 -5 -17 -2 -13 8 3 7 0 19 -6 26 -10 10 -8 12 7 6 16
-5 17 -4 6 9 -7 8 -10 15 -6 15 3 0 2 10 -3 23 -9 23 9 52 25 39 4 -4 4 -1 0
6 -4 7 -12 10 -17 6 -13 -7 0 46 15 65 7 10 8 13 0 8 -6 -3 -11 0 -11 8 0 8 4
12 8 9 5 -2 8 6 7 18 -1 38 2 49 12 43 6 -3 10 -1 10 4 0 6 -5 11 -12 11 -6 0
-3 7 8 16 10 8 14 13 7 10 -13 -7 -12 12 2 34 5 8 10 20 10 25 0 6 8 9 18 9
14 -2 15 1 6 12 -14 17 2 18 21 2 8 -7 6 -2 -5 11 -15 18 -16 22 -5 20 9 -2
16 -2 16 1 0 3 6 16 13 30 11 23 11 24 -3 6 -9 -10 -13 -23 -9 -29 3 -6 1 -7
-5 -3 -13 8 -1 39 21 53 6 4 17 17 24 28 6 11 16 19 22 17 6 -1 11 6 11 16 0
10 5 23 12 30 14 14 42 16 33 2 -3 -5 -2 -10 3 -10 5 0 12 9 15 21 3 12 10 18
16 14 7 -4 8 0 5 10 -6 14 -8 14 -20 -2 -7 -10 -14 -13 -14 -8 0 22 22 35 43
24 15 -9 18 -8 12 2 -6 8 -4 11 7 7 8 -4 15 -1 15 7 0 8 -7 11 -16 8 -9 -3 0
5 19 19 30 21 38 23 55 12 18 -12 21 -11 21 6 0 14 -3 16 -13 8 -9 -7 -13 -7
-13 0 0 9 24 24 42 26 4 1 12 6 19 13 6 6 18 9 25 6 8 -3 14 -1 14 5 0 5 11
12 25 14 21 5 25 2 20 -13 -4 -11 -2 -19 5 -19 6 0 8 5 5 10 -8 13 1 13 28 0
22 -10 22 -10 0 6 -13 9 -23 21 -23 26 0 6 7 5 16 -2 12 -11 15 -11 12 -1 -3
11 21 19 70 23 6 1 12 6 12 11 0 6 2 8 5 5 14 -13 -9 -38 -30 -34 -19 4 -22 1
-18 -12 4 -10 8 -12 11 -4 2 7 8 9 14 6 12 -8 49 31 40 42 -4 5 0 3 9 -4 21
-16 62 -24 54 -11 -4 5 -10 7 -15 4 -5 -3 -11 -2 -14 3 -3 5 11 8 29 8 29 -1
34 -4 29 -18 -3 -10 0 -18 6 -18 6 0 8 5 5 10 -3 6 -1 10 5 10 6 0 8 5 5 10
-3 6 -1 10 6 10 7 0 9 -9 6 -22 -6 -22 -5 -22 8 -4 8 10 12 22 10 26 -2 4 2 7
10 7 11 0 12 -4 4 -14z m42 -16 c-10 -9 -11 -8 -5 6 3 10 9 15 12 12 3 -3 0
-11 -7 -18z m617 -372 c-3 -3 -9 2 -12 12 -6 14 -5 15 5 6 7 -7 10 -15 7 -18z
m-1788 -875 c0 -5 -2 -10 -4 -10 -3 0 -8 5 -11 10 -3 6 -1 10 4 10 6 0 11 -4
11 -10z m620 -611 c0 -5 4 -8 9 -5 5 3 12 -1 15 -10 9 -25 4 -24 -24 2 -13 13
-19 24 -12 24 6 0 12 -5 12 -11z m484 -265 c24 -9 19 -21 -6 -20 -22 2 -38
-10 -38 -26 0 -5 5 -8 11 -8 5 0 7 5 3 11 -4 6 1 9 13 7 11 -2 27 3 36 11 12
9 17 10 17 2 0 -7 4 -10 8 -7 4 2 14 0 22 -6 13 -8 13 -9 -1 -5 -9 3 -21 -4
-29 -16 -11 -19 -11 -20 1 -10 25 20 63 17 104 -8 22 -13 43 -23 48 -21 4 1 7
-3 7 -9 0 -5 5 -7 12 -3 7 4 8 3 4 -4 -4 -7 -2 -12 4 -12 6 0 8 -5 4 -12 -5
-8 -2 -9 9 -5 11 4 17 1 17 -8 0 -19 -25 -33 -67 -37 -7 -1 -11 -6 -10 -12 1
-6 -6 -10 -15 -10 -10 1 -16 -2 -13 -5 6 -11 -64 -42 -77 -35 -6 4 -8 2 -5 -3
4 -6 -11 -20 -35 -31 -45 -23 -38 -24 -128 30 -19 11 -61 34 -92 50 -32 16
-58 34 -58 39 0 6 -5 7 -12 3 -7 -5 -8 -3 -3 6 6 10 4 12 -8 7 -28 -11 -19 1
13 18 17 9 30 12 30 8 0 -4 7 2 15 13 15 18 15 18 12 -6 -2 -14 -2 -19 0 -12
3 6 9 12 14 12 6 0 7 -5 3 -12 -5 -7 -3 -8 5 -3 9 5 10 10 2 18 -6 6 -11 16
-11 22 1 5 11 -3 24 -19 17 -20 26 -25 31 -16 5 8 4 11 -1 7 -6 -3 -15 3 -21
13 -16 25 12 49 55 48 18 -1 38 4 44 10 13 13 -9 11 -32 -3 -13 -8 -13 -6 -2
8 8 9 17 16 20 15 21 -2 32 3 26 14 -4 6 -3 8 4 4 6 -3 13 -2 17 4 7 12 8 12
29 4z m680 -385 c-3 -6 0 -10 7 -8 25 3 42 -1 35 -8 -12 -13 -35 -11 -47 3 -9
11 -15 11 -25 3 -10 -8 -14 -8 -14 -1 0 13 32 32 42 25 5 -2 6 -9 2 -14z
m-2015 -348 c-13 -10 -29 -16 -37 -13 -11 4 -11 6 -1 13 7 4 17 5 21 3 4 -3 8
0 8 5 0 6 7 11 16 11 12 0 11 -4 -7 -19z m1031 -235 c0 -3 -4 -8 -10 -11 -5
-3 -10 -1 -10 4 0 6 5 11 10 11 6 0 10 -2 10 -4z m-140 -155 c0 -5 -7 -11 -14
-14 -10 -4 -13 -1 -9 9 6 15 23 19 23 5z"/>
<path d="M2450 4000 c0 -5 5 -10 11 -10 5 0 7 5 4 10 -3 6 -8 10 -11 10 -2 0
-4 -4 -4 -10z"/>
<path d="M2693 3988 c-2 -16 0 -16 13 -4 17 18 18 23 1 23 -7 0 -14 -9 -14
-19z"/>
<path d="M2347 3984 c3 -7 9 -14 14 -14 14 0 10 17 -5 23 -10 4 -13 1 -9 -9z"/>
<path d="M2475 3980 c-3 -6 1 -7 9 -4 18 7 21 14 7 14 -6 0 -13 -4 -16 -10z"/>
<path d="M2776 3982 c-3 -4 4 -9 15 -9 23 -2 25 3 4 10 -8 4 -16 3 -19 -1z"/>
<path d="M2255 3959 c-4 -6 -13 -8 -20 -5 -8 3 -19 -2 -25 -9 -7 -8 -16 -13
-20 -10 -5 3 -5 -5 -2 -17 5 -19 7 -20 10 -5 2 9 8 15 13 11 5 -3 9 -2 8 3 -3
19 2 27 10 14 7 -11 13 -9 30 8 11 11 17 21 12 21 -6 0 -13 -5 -16 -11z"/>
<path d="M2730 3959 c0 -5 5 -7 10 -4 6 3 10 8 10 11 0 2 -4 4 -10 4 -5 0 -10
-5 -10 -11z"/>
<path d="M2903 3927 c0 -12 1 -16 4 -9 3 6 9 12 14 12 6 0 7 -5 4 -10 -4 -6
-3 -10 2 -9 20 3 33 -2 31 -12 -2 -6 4 -14 12 -16 12 -4 12 -3 2 5 -8 5 -13
12 -13 16 3 17 0 26 -6 24 -5 -1 -17 3 -28 9 -18 10 -21 9 -22 -10z"/>
<path d="M2123 3898 c-10 -18 -12 -58 -1 -52 4 3 6 9 3 14 -3 5 3 13 12 19 11
6 13 11 5 11 -7 0 -10 5 -7 10 3 6 4 10 1 10 -3 0 -8 -6 -13 -12z"/>
<path d="M2987 3901 c6 -7 9 -20 6 -27 -3 -8 -3 -14 0 -14 14 0 14 30 -1 41
-14 11 -15 11 -5 0z"/>
<path d="M3016 3872 c-3 -5 1 -9 9 -9 8 0 12 4 9 9 -3 4 -7 8 -9 8 -2 0 -6 -4
-9 -8z"/>
<path d="M3089 3803 c-12 -16 -12 -17 2 -6 9 7 20 9 24 5 5 -4 5 -1 1 6 -9 16
-11 15 -27 -5z"/>
<path d="M1986 3792 c-2 -4 -1 -14 3 -21 6 -9 11 -10 15 -2 4 6 2 11 -4 11 -6
0 -8 5 -5 10 3 6 4 10 1 10 -3 0 -7 -4 -10 -8z"/>
<path d="M3125 3760 c3 -5 8 -10 11 -10 2 0 4 5 4 10 0 6 -5 10 -11 10 -5 0
-7 -4 -4 -10z"/>
<path d="M3156 3752 c-3 -5 1 -9 9 -9 8 0 12 4 9 9 -3 4 -7 8 -9 8 -2 0 -6 -4
-9 -8z"/>
<path d="M1949 3748 c0 -2 -2 -11 -4 -21 -3 -15 -1 -16 11 -6 7 6 11 15 8 20
-5 9 -13 12 -15 7z"/>
<path d="M3150 3726 c0 -2 7 -7 16 -10 8 -3 12 -2 9 4 -6 10 -25 14 -25 6z"/>
<path d="M3193 3685 c0 -8 4 -12 9 -9 4 3 8 9 8 15 0 5 -4 9 -8 9 -5 0 -9 -7
-9 -15z"/>
<path d="M3215 3669 c-4 -6 -5 -12 -2 -15 2 -3 7 2 10 11 7 17 1 20 -8 4z"/>
<path d="M3236 3598 c3 -5 10 -6 15 -3 13 9 11 12 -6 12 -8 0 -12 -4 -9 -9z"/>
<path d="M1875 3570 c-4 -6 -10 -8 -14 -6 -4 3 -13 0 -21 -5 -11 -7 -10 -8 8
-6 20 3 56 27 40 27 -4 0 -10 -5 -13 -10z"/>
<path d="M1845 3520 c-3 -6 1 -7 9 -4 18 7 21 14 7 14 -6 0 -13 -4 -16 -10z"/>
<path d="M3276 3473 c-6 -14 -5 -15 5 -6 7 7 10 15 7 18 -3 3 -9 -2 -12 -12z"/>
<path d="M3309 3323 c-13 -16 -12 -17 4 -4 16 13 21 21 13 21 -2 0 -10 -8 -17
-17z"/>
<path d="M1795 3311 c-3 -5 -2 -12 3 -15 5 -3 9 1 9 9 0 17 -3 19 -12 6z"/>
<path d="M3309 3277 c6 -8 9 -16 6 -19 -3 -2 2 -5 10 -5 13 0 13 3 -2 19 -19
21 -31 25 -14 5z"/>
<path d="M3275 3001 c-3 -5 -2 -12 3 -15 5 -3 9 1 9 9 0 17 -3 19 -12 6z"/>
<path d="M2664 1819 c-3 -6 -1 -16 5 -22 9 -9 10 -7 5 8 -7 18 -6 19 12 5 18
-14 18 -14 5 3 -16 20 -18 20 -27 6z"/>
<path d="M2425 1809 c-10 -16 1 -22 26 -14 17 6 19 9 8 16 -19 12 -26 11 -34
-2z"/>
<path d="M2700 1790 c-9 -6 -10 -10 -3 -10 6 0 15 5 18 10 8 12 4 12 -15 0z"/>
<path d="M2719 1773 c-13 -16 -12 -17 2 -5 14 10 18 10 24 -5 5 -10 7 -22 6
-26 -1 -5 3 -6 8 -3 5 4 12 2 16 -4 3 -5 14 -10 23 -9 14 0 13 2 -3 8 -11 5
-20 13 -20 20 0 6 -3 10 -7 9 -4 -2 -13 5 -21 15 -13 18 -13 18 -28 0z"/>
<path d="M2323 1752 c-8 -5 -8 -12 2 -25 12 -16 13 -16 19 -1 8 21 -5 36 -21
26z"/>
<path d="M1316 3207 c3 -10 9 -15 12 -12 3 3 0 11 -7 18 -10 9 -11 8 -5 -6z"/>
<path d="M3775 3140 c3 -5 8 -10 11 -10 2 0 4 5 4 10 0 6 -5 10 -11 10 -5 0
-7 -4 -4 -10z"/>
<path d="M3715 2800 c3 -5 8 -10 11 -10 2 0 4 5 4 10 0 6 -5 10 -11 10 -5 0
-7 -4 -4 -10z"/>
<path d="M3536 2555 c-3 -8 -1 -15 4 -15 6 0 10 7 10 15 0 8 -2 15 -4 15 -2 0
-6 -7 -10 -15z"/>
<path d="M3575 2540 c3 -5 8 -10 11 -10 2 0 4 5 4 10 0 6 -5 10 -11 10 -5 0
-7 -4 -4 -10z"/>
<path d="M3499 2504 c-13 -16 -23 -51 -11 -39 4 4 8 11 8 16 1 5 2 12 3 16 0
4 7 -1 14 -11 12 -16 14 -16 14 -2 0 9 -5 16 -11 16 -6 0 -4 5 4 10 8 5 10 10
4 10 -6 0 -18 -7 -25 -16z"/>
<path d="M1640 2479 c0 -3 9 -16 20 -29 11 -12 17 -27 14 -31 -3 -5 0 -9 5 -9
6 0 11 4 11 9 0 11 -49 70 -50 60z"/>
<path d="M3450 2445 c0 -5 5 -17 10 -25 5 -8 10 -10 10 -5 0 6 -5 17 -10 25
-5 8 -10 11 -10 5z"/>
<path d="M3354 2358 c-4 -7 -4 -10 1 -6 4 4 15 2 24 -5 14 -11 14 -10 2 6 -16
20 -18 21 -27 5z"/>
<path d="M1726 2342 c-3 -5 1 -9 9 -9 8 0 12 4 9 9 -3 4 -7 8 -9 8 -2 0 -6 -4
-9 -8z"/>
<path d="M3355 2329 c-4 -6 -5 -12 -2 -15 2 -3 7 2 10 11 7 17 1 20 -8 4z"/>
<path d="M3296 2287 c3 -10 9 -15 12 -12 3 3 0 11 -7 18 -10 9 -11 8 -5 -6z"/>
<path d="M1844 2274 c-18 -14 -18 -15 4 -4 21 10 26 7 23 -13 -1 -5 3 -6 8 -3
5 4 12 0 14 -6 3 -8 6 -8 6 -2 1 6 -7 18 -17 27 -17 15 -20 15 -38 1z"/>
<path d="M3240 2267 c-14 -12 -27 -21 -30 -19 -2 2 -6 -2 -8 -10 -2 -9 0 -8 7
2 10 13 11 13 11 0 1 -12 3 -11 11 3 6 9 15 14 21 11 6 -4 8 -3 4 4 -3 5 0 12
6 15 7 2 10 7 7 11 -3 3 -16 -4 -29 -17z"/>
<path d="M1910 2229 c0 -5 -5 -7 -12 -3 -7 4 -8 3 -4 -4 4 -6 13 -9 20 -6 7 3
18 -2 25 -10 7 -8 20 -12 28 -9 11 4 14 2 9 -5 -4 -7 -2 -12 3 -12 6 0 11 4
11 10 0 12 -35 31 -43 23 -4 -3 -9 2 -13 11 -7 18 -24 22 -24 5z"/>
<path d="M3133 2200 l-22 -17 27 0 c15 0 21 2 14 4 -6 3 -9 9 -6 14 3 6 11 5
20 -2 8 -7 14 -7 14 -1 0 19 -26 20 -47 2z"/>
<path d="M2010 2170 c6 -11 13 -20 16 -20 2 0 0 9 -6 20 -6 11 -13 20 -16 20
-2 0 0 -9 6 -20z"/>
<path d="M3085 2171 c-9 -15 13 -23 32 -11 15 9 14 10 -6 4 -16 -4 -21 -3 -17
5 4 6 5 11 2 11 -3 0 -7 -4 -11 -9z"/>
<path d="M1995 2141 c-3 -5 -2 -12 3 -15 5 -3 9 1 9 9 0 17 -3 19 -12 6z"/>
<path d="M2046 2123 c-6 -14 -5 -15 5 -6 7 7 10 15 7 18 -3 3 -9 -2 -12 -12z"/>
<path d="M3029 2138 c-7 -21 -3 -45 8 -45 15 0 17 13 3 22 -6 4 -8 11 -5 16 4
5 4 9 1 9 -3 0 -6 -1 -7 -2z"/>
<path d="M2995 2110 c-3 -5 -1 -10 4 -10 6 0 11 5 11 10 0 6 -2 10 -4 10 -3 0
-8 -4 -11 -10z"/>
<path d="M780 2096 c0 -2 9 -6 20 -9 11 -3 18 -1 14 4 -5 9 -34 13 -34 5z"/>
<path d="M4260 2061 c-13 -11 -27 -18 -30 -16 -3 2 -12 -1 -20 -6 -11 -7 -8
-8 12 -5 15 2 29 1 31 -2 2 -4 2 -2 1 5 -2 7 6 15 17 18 10 4 19 11 19 16 0
12 -1 12 -30 -10z"/>
<path d="M856 2063 c-3 -3 -6 -11 -6 -17 0 -6 4 -6 8 2 7 9 14 8 32 -8 27 -24
38 -26 20 -4 -18 20 -46 35 -54 27z"/>
<path d="M890 2016 c0 -2 8 -10 18 -17 15 -13 16 -12 3 4 -13 16 -21 21 -21
13z"/>
<path d="M955 2000 c3 -5 8 -10 11 -10 2 0 4 5 4 10 0 6 -5 10 -11 10 -5 0 -7
-4 -4 -10z"/>
<path d="M933 1985 c0 -8 4 -12 9 -9 5 3 6 10 3 15 -9 13 -12 11 -12 -6z"/>
<path d="M4125 1960 c10 -11 20 -20 23 -20 3 0 -3 9 -13 20 -10 11 -20 20 -23
20 -3 0 3 -9 13 -20z"/>
<path d="M1090 1900 c0 -5 5 -10 11 -10 5 0 7 5 4 10 -3 6 -8 10 -11 10 -2 0
-4 -4 -4 -10z"/>
<path d="M3956 1897 c-11 -8 -16 -20 -13 -28 4 -10 6 -9 6 4 1 9 5 17 10 17 5
0 12 -8 14 -17 3 -10 4 -6 4 10 -1 15 -2 27 -2 27 -1 0 -9 -6 -19 -13z"/>
<path d="M1171 1884 c0 -11 3 -14 6 -6 3 7 2 16 -1 19 -3 4 -6 -2 -5 -13z"/>
<path d="M3990 1890 c0 -5 5 -10 11 -10 5 0 7 5 4 10 -3 6 -8 10 -11 10 -2 0
-4 -4 -4 -10z"/>
<path d="M3849 1844 c-10 -13 6 -32 18 -20 4 3 1 6 -6 6 -7 0 -9 5 -6 10 5 8
11 8 19 1 9 -8 13 -7 13 2 0 17 -24 18 -38 1z"/>
<path d="M3909 1837 c7 -7 14 -8 21 -1 6 6 2 10 -12 11 -16 2 -18 -1 -9 -10z"/>
<path d="M3784 1802 c3 -5 0 -13 -6 -15 -9 -4 -10 -6 -1 -6 17 -1 25 16 12 25
-7 4 -9 3 -5 -4z"/>
<path d="M1370 1780 c0 -5 5 -10 11 -10 5 0 7 5 4 10 -3 6 -8 10 -11 10 -2 0
-4 -4 -4 -10z"/>
<path d="M1335 1760 c-3 -6 1 -7 9 -4 18 7 21 14 7 14 -6 0 -13 -4 -16 -10z"/>
<path d="M3710 1762 c0 -7 -3 -11 -7 -11 -17 3 -33 -1 -33 -9 0 -4 9 -8 20 -9
11 -1 20 2 20 7 0 5 8 7 18 4 10 -4 13 -2 7 3 -5 4 -13 12 -17 17 -5 5 -8 4
-8 -2z"/>
<path d="M1390 1740 c0 -6 7 -10 15 -10 8 0 15 2 15 4 0 2 -7 6 -15 10 -8 3
-15 1 -15 -4z"/>
<path d="M1853 1487 c-6 -10 15 -27 32 -27 6 0 3 5 -5 10 -13 8 -13 10 1 10 9
0 19 -3 23 -7 13 -13 35 -11 29 3 -3 8 -8 14 -12 15 -38 5 -63 3 -68 -4z"/>
<path d="M3305 1460 c-3 -6 1 -7 10 -4 11 5 14 2 9 -12 -5 -15 -4 -16 4 -4 11
15 7 30 -8 30 -5 0 -12 -4 -15 -10z"/>
<path d="M1905 1440 c-3 -6 1 -7 9 -4 18 7 21 14 7 14 -6 0 -13 -4 -16 -10z"/>
<path d="M3114 1429 c-3 -6 -3 -13 0 -16 3 -4 6 -1 6 5 0 6 7 9 15 6 8 -4 15
-4 15 -1 0 11 -30 16 -36 6z"/>
<path d="M3376 1427 c3 -8 15 -17 26 -20 11 -3 17 -10 13 -16 -3 -6 -1 -11 4
-11 20 0 11 19 -19 40 -20 15 -28 17 -24 7z"/>
<path d="M2027 1416 c-4 -11 -1 -13 10 -9 12 5 14 3 8 -7 -5 -9 -4 -11 4 -6 9
6 9 11 0 22 -14 17 -16 17 -22 0z"/>
<path d="M1703 1405 c-3 -9 -3 -18 -1 -21 3 -3 8 4 11 16 6 23 -1 27 -10 5z"/>
<path d="M1731 1394 c0 -11 3 -14 6 -6 3 7 2 16 -1 19 -3 4 -6 -2 -5 -13z"/>
<path d="M1666 1392 c-3 -5 1 -9 9 -9 8 0 12 4 9 9 -3 4 -7 8 -9 8 -2 0 -6 -4
-9 -8z"/>
<path d="M2070 1391 c0 -5 5 -13 10 -16 6 -3 10 -2 10 4 0 5 -4 13 -10 16 -5
3 -10 2 -10 -4z"/>
<path d="M3080 1380 c-8 -5 -10 -10 -5 -10 6 0 17 5 25 10 8 5 11 10 5 10 -5
0 -17 -5 -25 -10z"/>
<path d="M2102 1376 c4 -5 3 -15 -3 -22 -10 -13 6 -32 18 -20 4 3 1 6 -6 6 -7
0 -10 4 -6 10 3 5 12 7 20 3 8 -3 15 1 15 8 0 7 -3 9 -7 6 -3 -4 -13 -1 -22 5
-9 7 -13 8 -9 4z"/>
<path d="M3479 1371 c11 -7 11 -9 0 -13 -8 -3 2 -5 21 -6 l35 -1 -25 14 c-27
15 -54 20 -31 6z"/>
<path d="M3014 1339 c-3 -6 -2 -15 3 -20 5 -5 9 -1 9 11 0 23 -2 24 -12 9z"/>
<path d="M1561 1324 c0 -11 3 -14 6 -6 3 7 2 16 -1 19 -3 4 -6 -2 -5 -13z"/>
<path d="M730 1300 c0 -5 5 -10 11 -10 5 0 7 5 4 10 -3 6 -8 10 -11 10 -2 0
-4 -4 -4 -10z"/>
<path d="M3580 1296 c0 -7 50 -13 55 -7 2 4 -10 8 -26 9 -16 1 -29 1 -29 -2z"/>
<path d="M1415 1249 c-4 -5 -1 -8 7 -7 7 2 12 -3 10 -10 -1 -8 2 -11 8 -7 5 3
10 10 10 15 0 12 -29 20 -35 9z"/>
<path d="M3686 1251 c-4 -5 -2 -12 3 -15 5 -4 12 -2 15 3 4 5 2 12 -3 15 -5 4
-12 2 -15 -3z"/>
<path d="M3716 1233 c-6 -14 -5 -15 5 -6 7 7 10 15 7 18 -3 3 -9 -2 -12 -12z"/>
<path d="M1368 1224 c-26 -14 -30 -44 -6 -44 6 0 5 6 -2 15 -10 12 -9 15 6 16
11 1 22 1 25 1 3 -1 6 6 6 14 0 8 -1 14 -1 14 -1 -1 -13 -7 -28 -16z"/>
<path d="M3753 1215 c0 -8 4 -12 9 -9 5 3 6 10 3 15 -9 13 -12 11 -12 -6z"/>
<path d="M3731 1204 c0 -11 3 -14 6 -6 3 7 2 16 -1 19 -3 4 -6 -2 -5 -13z"/>
<path d="M3775 1200 c-10 -16 5 -33 19 -21 7 6 17 6 26 1 13 -8 13 -10 1 -10
-8 0 -12 -3 -8 -6 3 -3 11 -3 18 2 9 5 7 11 -6 20 -15 11 -21 11 -34 1 -12
-10 -14 -9 -8 6 7 18 2 23 -8 7z"/>
<path d="M1298 1183 c-25 -30 -29 -41 -17 -49 7 -4 9 -3 6 3 -4 6 2 21 13 33
11 13 20 25 20 27 0 7 -8 2 -22 -14z"/>
<path d="M3866 1155 c4 -8 11 -15 16 -15 6 0 5 6 -2 15 -7 8 -14 15 -16 15 -2
0 -1 -7 2 -15z"/>
<path d="M3827 1139 c7 -7 15 -10 18 -7 3 3 -2 9 -12 12 -14 6 -15 5 -6 -5z"/>
<path d="M3896 1134 c-4 -10 -12 -14 -24 -9 -13 5 -14 3 -6 -5 9 -9 17 -8 33
2 16 10 23 10 29 1 4 -6 14 -13 22 -15 8 -2 20 -9 26 -17 9 -11 12 -12 19 -1
5 8 4 11 -2 7 -6 -4 -14 0 -17 9 -3 8 -10 13 -15 9 -5 -3 -12 -1 -16 5 -3 5
-14 14 -25 20 -14 7 -19 6 -24 -6z"/>
<path d="M2501 1084 c14 -17 32 -19 27 -2 -2 6 -12 12 -22 14 -14 2 -15 0 -5
-12z"/>
<path d="M1064 1061 c-17 -10 -31 -26 -31 -35 0 -14 2 -14 17 -1 9 8 20 12 24
8 4 -4 4 1 0 11 -5 14 -4 17 4 12 7 -4 12 -2 12 4 0 6 5 8 12 4 7 -4 8 -3 4 4
-9 15 -5 15 -42 -7z"/>
<path d="M2406 1055 c-11 -8 -17 -17 -14 -20 2 -3 13 4 23 15 21 23 18 25 -9
5z"/>
<path d="M4055 1049 c-4 -5 -4 -13 -1 -16 3 -4 6 0 6 8 0 11 2 11 10 -1 6 -9
10 -10 10 -3 0 17 -17 25 -25 12z"/>
<path d="M2750 1023 c6 -13 16 -22 23 -20 7 1 11 -6 9 -17 -3 -15 -1 -16 10
-5 12 11 12 15 -1 29 -9 9 -18 12 -20 7 -1 -4 -10 0 -18 10 -13 17 -13 16 -3
-4z"/>
<path d="M928 984 c-43 -27 -44 -30 -24 -37 9 -4 13 -1 10 6 -4 13 44 40 57
31 5 -3 6 2 3 10 -3 9 -7 16 -8 15 0 0 -18 -11 -38 -25z"/>
<path d="M993 995 c0 -8 4 -12 9 -9 5 3 6 10 3 15 -9 13 -12 11 -12 -6z"/>
<path d="M4153 997 c0 -8 6 -14 13 -14 7 0 10 6 7 14 -3 7 -8 13 -12 13 -4 0
-8 -6 -8 -13z"/>
<path d="M737 979 c7 -7 15 -10 18 -7 3 3 -2 9 -12 12 -14 6 -15 5 -6 -5z"/>
<path d="M2302 967 c-12 -13 -22 -27 -22 -33 0 -5 5 -1 11 9 6 9 15 14 21 11
6 -4 8 -3 4 4 -3 5 0 12 6 15 7 2 10 7 7 11 -3 3 -15 -4 -27 -17z"/>
<path d="M4150 959 c0 -5 5 -7 10 -4 6 3 10 8 10 11 0 2 -4 4 -10 4 -5 0 -10
-5 -10 -11z"/>
<path d="M859 943 c-8 -9 -9 -14 -2 -10 6 4 13 2 15 -5 3 -9 6 -9 12 0 4 7 2
12 -4 12 -6 0 -8 5 -5 10 10 16 -1 11 -16 -7z"/>
<path d="M830 921 c0 -5 7 -12 16 -15 14 -5 15 -4 4 9 -14 17 -20 19 -20 6z"/>
<path d="M4297 911 c-4 -17 -3 -21 5 -13 5 5 8 16 6 23 -3 8 -7 3 -11 -10z"/>
<path d="M4256 902 c-3 -5 1 -9 9 -9 8 0 12 4 9 9 -3 4 -7 8 -9 8 -2 0 -6 -4
-9 -8z"/>
<path d="M2227 779 c7 -7 15 -10 18 -7 3 3 -2 9 -12 12 -14 6 -15 5 -6 -5z"/>
<path d="M3089 744 c-7 -9 -5 -12 8 -9 10 1 25 -4 34 -11 13 -12 16 -12 16 1
0 8 -5 11 -10 8 -6 -4 -8 0 -5 8 7 18 -29 20 -43 3z"/>
<path d="M3165 740 c8 -9 13 -19 10 -22 -3 -3 6 -3 20 0 14 2 27 8 30 12 2 4
-7 5 -22 2 -18 -3 -24 -1 -19 7 4 6 11 9 16 6 5 -3 11 -2 14 3 2 4 -11 8 -29
8 -31 0 -33 -2 -20 -16z"/>
<path d="M3273 745 c0 -8 4 -12 9 -9 5 3 6 10 3 15 -9 13 -12 11 -12 -6z"/>
<path d="M2030 742 c0 -10 38 -13 44 -3 3 3 -6 8 -20 9 -13 1 -24 -2 -24 -6z"/>
<path d="M2910 740 c0 -5 5 -10 11 -10 5 0 7 5 4 10 -3 6 -8 10 -11 10 -2 0
-4 -4 -4 -10z"/>
<path d="M1830 737 c0 -2 6 -10 14 -16 11 -9 16 -9 22 1 4 7 4 10 -1 6 -4 -4
-14 -3 -22 3 -7 6 -13 9 -13 6z"/>
</g>
</svg>
